<?xml version="1.0" encoding="utf-8"?>
<!-- Generator: Adobe Illustrator 16.0.0, SVG Export Plug-In . SVG Version: 6.00 Build 0)  -->
<!DOCTYPE svg PUBLIC "-//W3C//DTD SVG 1.1//EN" "http://www.w3.org/Graphics/SVG/1.1/DTD/svg11.dtd">
<svg version="1.1" id="Layer_1" xmlns="http://www.w3.org/2000/svg" xmlns:xlink="http://www.w3.org/1999/xlink" x="0px" y="0px"
	 width="360px" height="292.068px" viewBox="0 0 360 292.068" enable-background="new 0 0 360 292.068" xml:space="preserve">
<g>
	<path d="M343.019,16.981v183.396H16.981V16.981H343.019 M343.019,0H16.981C7.603,0,0,7.603,0,16.981v183.396
		c0,9.378,7.603,16.981,16.981,16.981h326.038c9.378,0,16.981-7.604,16.981-16.981V16.981C360,7.603,352.396,0,343.019,0L343.019,0z
		"/>
	<path d="M286.472,292.068c-1.529-10.061-10.216-18.992-20.704-18.992H94.242c-10.488,0-19.175,8.932-20.704,18.992H286.472z"/>
	<path d="M203.798,277.038c0,1.094-0.887,1.981-1.981,1.981h-43.633c-1.094,0-1.981-0.888-1.981-1.981v-50.139
		c0-1.094,0.887-1.98,1.981-1.98h43.633c1.095,0,1.981,0.887,1.981,1.98V277.038z"/>
</g>
</svg>
