<?xml version="1.0" encoding="utf-8"?>
<!-- Generator: Adobe Illustrator 16.0.0, SVG Export Plug-In . SVG Version: 6.00 Build 0)  -->
<!DOCTYPE svg PUBLIC "-//W3C//DTD SVG 1.1//EN" "http://www.w3.org/Graphics/SVG/1.1/DTD/svg11.dtd">
<svg version="1.1" id="Layer_1" xmlns="http://www.w3.org/2000/svg" xmlns:xlink="http://www.w3.org/1999/xlink" x="0px" y="0px"
	 width="216px" height="216px" viewBox="0 0 216 216" enable-background="new 0 0 216 216" xml:space="preserve">
<g>
	<g>
		<path d="M151.54,156.376c-12.301,12.849-29.442,20.837-48.376,20.837c-37.338,0-67.714-31.049-67.714-69.213
			s30.376-69.213,67.714-69.213c18.934,0,36.075,7.988,48.376,20.837l25.057-25.058c-18.721-19.266-44.724-31.229-73.433-31.229
			C46.279,3.338,0,50.289,0,108s46.279,104.662,103.164,104.662c28.709,0,54.712-11.963,73.433-31.229L151.54,156.376z"/>
	</g>
	<rect x="104.593" y="77.52" width="16.624" height="60.961"/>
	<rect x="82.581" y="99.646" width="60.646" height="16.709"/>
	<rect x="177.363" y="77.52" width="16.627" height="60.961"/>
	<rect x="155.353" y="99.646" width="60.647" height="16.709"/>
</g>
</svg>
