<?xml version="1.0" encoding="utf-8"?>
<!-- Generator: Adobe Illustrator 16.0.0, SVG Export Plug-In . SVG Version: 6.00 Build 0)  -->
<!DOCTYPE svg PUBLIC "-//W3C//DTD SVG 1.1//EN" "http://www.w3.org/Graphics/SVG/1.1/DTD/svg11.dtd">
<svg version="1.1" id="Layer_1" xmlns="http://www.w3.org/2000/svg" xmlns:xlink="http://www.w3.org/1999/xlink" x="0px" y="0px"
	 width="216px" height="216px" viewBox="0 0 216 216" enable-background="new 0 0 216 216" xml:space="preserve">
<g>
	<path d="M53.815,73.841c0.781-1.07,1.635-1.872,2.561-2.407c0.926-0.535,1.924-0.803,2.993-0.803c1.852,0,3.363,0.638,4.536,1.914
		s1.759,3.435,1.759,6.48v10.738c0,3.044-0.586,5.215-1.759,6.511s-2.685,1.944-4.536,1.944c-1.687,0-3.044-0.473-4.073-1.419
		c-1.028-0.946-1.789-2.715-2.283-5.307c-0.288-1.728-0.864-3.065-1.728-4.012c-1.688-1.852-4.043-3.333-7.066-4.443
		c-3.024-1.111-6.059-1.667-9.103-1.667c-3.785,0-7.262,0.823-10.43,2.469c-3.169,1.646-5.966,4.32-8.394,8.023
		c-2.428,3.703-3.642,8.105-3.642,13.207v8.208c0,6.088,2.212,11.17,6.635,15.242c4.423,4.074,10.563,6.11,18.422,6.11
		c4.69,0,8.66-0.638,11.91-1.913c1.893-0.74,3.909-2.201,6.049-4.382c1.316-1.316,2.345-2.171,3.085-2.562
		c0.741-0.391,1.584-0.586,2.53-0.586c1.688,0,3.168,0.638,4.443,1.913c1.276,1.275,1.914,2.777,1.914,4.505
		c0,1.729-0.864,3.58-2.593,5.555c-2.51,2.88-5.739,5.143-9.688,6.789c-5.308,2.221-11.171,3.332-17.589,3.332
		c-7.488,0-14.235-1.543-20.242-4.629c-4.855-2.469-8.99-6.367-12.404-11.694C1.708,125.63,0,119.818,0,113.523v-8.578
		c0-6.583,1.533-12.724,4.598-18.422c3.065-5.698,7.313-10.09,12.744-13.176c5.431-3.086,11.191-4.629,17.28-4.629
		c3.662,0,7.087,0.422,10.275,1.265C48.086,70.828,51.059,72.113,53.815,73.841z"/>
	<path d="M91.338,142.221c-1.111,1.316-2.006,2.16-2.685,2.53c-0.68,0.37-1.513,0.556-2.5,0.556c-1.934,0-3.486-0.648-4.659-1.944
		s-1.759-3.446-1.759-6.449v-8.517c0-3.045,0.586-5.215,1.759-6.511s2.726-1.944,4.659-1.944c1.481,0,2.726,0.391,3.733,1.173
		c1.009,0.782,1.78,2.088,2.314,3.919c0.535,1.831,1.091,3.075,1.667,3.734c1.192,1.275,3.312,2.57,6.356,3.887
		c3.044,1.317,6.377,1.976,9.997,1.976c5.637,0,10.266-1.317,13.886-3.95c2.305-1.604,3.456-3.579,3.456-5.924
		c0-1.564-0.555-3.035-1.666-4.413s-2.921-2.521-5.431-3.425c-1.646-0.617-5.328-1.461-11.047-2.53
		c-6.912-1.275-12.138-2.818-15.676-4.629c-3.538-1.81-6.336-4.361-8.393-7.652c-2.058-3.292-3.086-6.851-3.086-10.677
		c0-6.048,2.53-11.345,7.591-15.891c5.061-4.546,11.644-6.82,19.748-6.82c3.251,0,6.265,0.36,9.042,1.08
		c2.776,0.72,5.297,1.821,7.56,3.302c1.646-1.604,3.291-2.407,4.938-2.407c1.851,0,3.363,0.648,4.535,1.944
		c1.173,1.296,1.76,3.446,1.76,6.449v9.504c0,3.044-0.587,5.215-1.76,6.511c-1.172,1.296-2.685,1.944-4.535,1.944
		c-1.563,0-2.922-0.473-4.073-1.419c-0.905-0.7-1.584-2.099-2.037-4.197c-0.452-2.098-1.028-3.6-1.728-4.505
		c-1.193-1.563-2.983-2.88-5.369-3.95c-2.387-1.07-5.143-1.605-8.27-1.605c-4.567,0-8.178,1.06-10.831,3.179
		c-2.654,2.119-3.98,4.33-3.98,6.634c0,1.563,0.545,3.075,1.635,4.536c1.091,1.461,2.685,2.603,4.783,3.425
		c1.398,0.576,5.338,1.502,11.818,2.777c6.479,1.275,11.458,2.674,14.935,4.196c3.477,1.522,6.367,3.909,8.671,7.16
		c2.305,3.25,3.456,7.117,3.456,11.602c0,6.254-2.201,11.252-6.604,14.996c-5.842,4.938-13.289,7.406-22.341,7.406
		c-3.497,0-6.901-0.422-10.213-1.266C97.684,145.173,94.464,143.908,91.338,142.221z"/>
	<path d="M167.185,142.221c-1.111,1.316-2.006,2.16-2.685,2.53s-1.513,0.556-2.5,0.556c-1.934,0-3.486-0.648-4.659-1.944
		s-1.759-3.446-1.759-6.449v-8.517c0-3.045,0.586-5.215,1.759-6.511s2.726-1.944,4.659-1.944c1.481,0,2.726,0.391,3.734,1.173
		c1.008,0.782,1.779,2.088,2.313,3.919c0.535,1.831,1.091,3.075,1.667,3.734c1.193,1.275,3.312,2.57,6.356,3.887
		c3.045,1.317,6.377,1.976,9.998,1.976c5.636,0,10.265-1.317,13.886-3.95c2.304-1.604,3.455-3.579,3.455-5.924
		c0-1.564-0.555-3.035-1.666-4.413c-1.11-1.378-2.921-2.521-5.431-3.425c-1.646-0.617-5.328-1.461-11.047-2.53
		c-6.912-1.275-12.137-2.818-15.676-4.629c-3.538-1.81-6.336-4.361-8.393-7.652c-2.058-3.292-3.086-6.851-3.086-10.677
		c0-6.048,2.53-11.345,7.591-15.891c5.061-4.546,11.644-6.82,19.749-6.82c3.25,0,6.264,0.36,9.041,1.08
		c2.777,0.72,5.297,1.821,7.56,3.302c1.646-1.604,3.292-2.407,4.938-2.407c1.852,0,3.363,0.648,4.536,1.944
		c1.172,1.296,1.759,3.446,1.759,6.449v9.504c0,3.044-0.587,5.215-1.759,6.511c-1.173,1.296-2.685,1.944-4.536,1.944
		c-1.563,0-2.921-0.473-4.073-1.419c-0.905-0.7-1.584-2.099-2.037-4.197c-0.452-2.098-1.028-3.6-1.728-4.505
		c-1.193-1.563-2.982-2.88-5.369-3.95c-2.387-1.07-5.143-1.605-8.27-1.605c-4.567,0-8.178,1.06-10.831,3.179
		c-2.653,2.119-3.98,4.33-3.98,6.634c0,1.563,0.545,3.075,1.636,4.536c1.09,1.461,2.685,2.603,4.782,3.425
		c1.399,0.576,5.339,1.502,11.818,2.777c6.48,1.275,11.458,2.674,14.935,4.196c3.477,1.522,6.367,3.909,8.671,7.16
		c2.305,3.25,3.456,7.117,3.456,11.602c0,6.254-2.201,11.252-6.604,14.996c-5.842,4.938-13.289,7.406-22.34,7.406
		c-3.497,0-6.902-0.422-10.214-1.266C173.53,145.173,170.312,143.908,167.185,142.221z"/>
</g>
</svg>
