<?xml version="1.0" encoding="utf-8"?>
<!-- Generator: Adobe Illustrator 16.0.0, SVG Export Plug-In . SVG Version: 6.00 Build 0)  -->
<!DOCTYPE svg PUBLIC "-//W3C//DTD SVG 1.1//EN" "http://www.w3.org/Graphics/SVG/1.1/DTD/svg11.dtd">
<svg version="1.1" id="Layer_1" xmlns="http://www.w3.org/2000/svg" xmlns:xlink="http://www.w3.org/1999/xlink" x="0px" y="0px"
	 width="216px" height="216px" viewBox="0 0 216 216" enable-background="new 0 0 216 216" xml:space="preserve">
<g>
	<path fill="#333333" d="M119.291,163.082c-30.373,0-55.082-24.709-55.082-55.081c0-30.373,24.709-55.083,55.082-55.083
		c15.186,0,28.956,6.178,38.93,16.152l17.902-17.902c-14.561-14.56-34.663-23.578-56.832-23.578
		c-40.098,0-73.432,29.502-79.442,67.938H0v24.945h39.849c6.011,38.438,39.345,67.938,79.442,67.938
		c22.169,0,42.271-9.018,56.832-23.578l-17.902-17.9C148.247,156.904,134.477,163.082,119.291,163.082z"/>
	<path fill="#333333" d="M147.766,95.528c-4.808-10.956-15.744-18.612-28.475-18.612c-17.168,0-31.085,13.917-31.085,31.085
		c0,17.167,13.917,31.085,31.085,31.085c12.73,0,23.667-7.656,28.475-18.613H216V95.528H147.766z"/>
</g>
</svg>
