<?xml version="1.0" encoding="utf-8"?>
<!-- Generator: Adobe Illustrator 16.0.0, SVG Export Plug-In . SVG Version: 6.00 Build 0)  -->
<!DOCTYPE svg PUBLIC "-//W3C//DTD SVG 1.1//EN" "http://www.w3.org/Graphics/SVG/1.1/DTD/svg11.dtd">
<svg version="1.1" id="Layer_1" xmlns="http://www.w3.org/2000/svg" xmlns:xlink="http://www.w3.org/1999/xlink" x="0px" y="0px"
	 width="216px" height="216px" viewBox="0 0 216 216" enable-background="new 0 0 216 216" xml:space="preserve">
<g>
	<path fill="#333333" d="M199.712,152.373L195.604,216H16.288v-10.807c3.045-0.207,7.1-0.637,12.178-1.287
		c5.078-0.664,8.371-1.355,9.895-2.062c3.252-1.521,5.508-3.5,6.766-5.936c1.273-2.436,1.91-5.535,1.91-9.285V31.357
		c0-3.348-0.553-6.322-1.674-8.896c-1.121-2.602-3.445-4.705-7.002-6.324c-2.74-1.314-6.422-2.492-11.029-3.502
		c-4.623-1.01-8.303-1.619-11.043-1.826V0h167.137v52.061H172.01c-2.035-7.709-6.42-15.9-13.16-24.592
		c-6.754-8.662-13.174-13.408-19.262-14.225c-3.143-0.402-6.906-0.705-11.266-0.914c-4.359-0.207-9.34-0.305-14.918-0.305H79.46
		v85.854h24.354c7.82,0,13.521-0.734,17.12-2.215c3.61-1.467,6.778-3.93,9.52-7.375c2.229-2.947,4.139-6.879,5.701-11.805
		c1.578-4.912,2.615-9.562,3.129-13.922h11.416v84.635h-11.416c-0.402-4.871-1.496-10.018-3.266-15.443
		c-1.785-5.438-3.642-9.369-5.564-11.805c-3.141-3.957-6.725-6.545-10.738-7.762c-3.998-1.22-9.299-1.828-15.9-1.828H79.46v64.736
		c0,6.489,0.455,11.608,1.369,15.358c0.914,3.735,2.686,6.573,5.328,8.512c2.643,1.925,6.24,3.154,10.807,3.724
		c4.566,0.553,11.057,0.83,19.484,0.83c3.35,0,7.764,0,13.243,0s10.103-0.209,13.853-0.609c3.86-0.402,7.832-1.135,11.955-2.215
		c4.099-1.051,7.019-2.504,8.746-4.33c4.664-4.871,9.562-12.248,14.696-22.156c5.119-9.879,8.386-17.172,9.812-21.836H199.712z"/>
</g>
</svg>
