<?xml version="1.0" encoding="utf-8"?>
<!-- Generator: Adobe Illustrator 16.0.0, SVG Export Plug-In . SVG Version: 6.00 Build 0)  -->
<!DOCTYPE svg PUBLIC "-//W3C//DTD SVG 1.1//EN" "http://www.w3.org/Graphics/SVG/1.1/DTD/svg11.dtd">
<svg version="1.1" id="Layer_1" xmlns="http://www.w3.org/2000/svg" xmlns:xlink="http://www.w3.org/1999/xlink" x="0px" y="0px"
	 width="250px" height="250px" viewBox="0 0 250 250" enable-background="new 0 0 250 250" xml:space="preserve">
<path fill="#4C4C4C" d="M236.169,0H13.832C6.213,0,0,6.213,0,13.832v222.337C0,243.786,6.213,250,13.832,250H134v-97h-33v-37h33
	V87.645c0-32.281,19.406-49.858,48.203-49.858c13.793,0,24.797,1.027,28.797,1.486v33.735l-19.641,0.009
	c-15.66,0-18.359,7.442-18.359,18.363V116h36.832l-4.864,37H173v97h63.169c7.615,0,13.831-6.214,13.831-13.831V13.832
	C250,6.213,243.784,0,236.169,0z"/>
</svg>
