<?xml version="1.0" encoding="utf-8"?>
<!-- Generator: Adobe Illustrator 16.0.0, SVG Export Plug-In . SVG Version: 6.00 Build 0)  -->
<!DOCTYPE svg PUBLIC "-//W3C//DTD SVG 1.1//EN" "http://www.w3.org/Graphics/SVG/1.1/DTD/svg11.dtd">
<svg version="1.1" id="Layer_1" xmlns="http://www.w3.org/2000/svg" xmlns:xlink="http://www.w3.org/1999/xlink" x="0px" y="0px"
	 width="216px" height="216px" viewBox="0 0 216 216" enable-background="new 0 0 216 216" xml:space="preserve">
<path fill="#333333" d="M13.458,160.087c-0.069,0.772,0.244,1.533,0.839,2.033l19.284,16.181L8.488,208.193
	c-1.687,2.012-1.425,5.008,0.586,6.695c2.01,1.687,5.007,1.424,6.694-0.587l25.091-29.894l19.282,16.173
	c0.596,0.499,1.398,0.676,2.148,0.474c0.75-0.205,1.355-0.763,1.616-1.494c4.611-12.894,0.992-27.41-8.981-36.666L189.271,2.788
	c0.602-0.718,0.508-1.788-0.211-2.391c-0.717-0.602-1.787-0.509-2.391,0.209L52.325,160.713
	c-10.847-8.213-25.771-9.257-37.676-2.479C13.974,158.621,13.53,159.312,13.458,160.087z M20.139,160.818
	c10.09-4.241,21.945-2.558,30.462,4.589c8.518,7.146,12.234,18.53,9.809,29.2l-16.986-14.25l-6.298-5.285L20.139,160.818z"/>
<path fill="#333333" d="M201.352,158.234c-11.903-6.778-26.828-5.734-37.677,2.479L29.329,0.606
	c-0.604-0.718-1.673-0.811-2.391-0.209C26.22,1,26.127,2.07,26.729,2.788l134.346,160.108c-9.974,9.256-13.593,23.771-8.981,36.666
	c0.262,0.73,0.866,1.289,1.616,1.492c0.751,0.203,1.554,0.026,2.147-0.473l19.281-16.173l25.092,29.894
	c1.688,2.012,4.685,2.272,6.693,0.586c2.012-1.688,2.273-4.684,0.587-6.693l-25.093-29.895l19.283-16.181
	c0.596-0.5,0.908-1.261,0.84-2.033C202.471,159.312,202.025,158.621,201.352,158.234z M178.874,175.072l-6.298,5.285l-16.986,14.25
	c-2.425-10.67,1.292-22.055,9.811-29.2c8.517-7.146,20.371-8.83,30.461-4.589L178.874,175.072z"/>
</svg>
