<?xml version="1.0" encoding="utf-8"?>
<!-- Generator: Adobe Illustrator 16.0.0, SVG Export Plug-In . SVG Version: 6.00 Build 0)  -->
<!DOCTYPE svg PUBLIC "-//W3C//DTD SVG 1.1//EN" "http://www.w3.org/Graphics/SVG/1.1/DTD/svg11.dtd">
<svg version="1.1" id="Layer_1" xmlns="http://www.w3.org/2000/svg" xmlns:xlink="http://www.w3.org/1999/xlink" x="0px" y="0px"
	 width="250px" height="243.829px" viewBox="0 0 250 243.829" enable-background="new 0 0 250 243.829" xml:space="preserve">
<g>
	<path fill-rule="evenodd" clip-rule="evenodd" fill="#4C4C4C" d="M125.002,0C55.974,0,0,55.962,0,125
		c0,55.229,35.816,102.084,85.483,118.615c6.246,1.156,8.541-2.713,8.541-6.016c0-2.979-0.115-12.828-0.17-23.271
		c-34.775,7.561-42.113-14.749-42.113-14.749c-5.686-14.449-13.879-18.29-13.879-18.29c-11.342-7.758,0.855-7.601,0.855-7.601
		c12.551,0.882,19.161,12.885,19.161,12.885c11.148,19.107,29.243,13.584,36.376,10.391c1.122-8.078,4.36-13.597,7.936-16.718
		c-27.765-3.157-56.953-13.879-56.953-61.774c0-13.646,4.884-24.797,12.881-33.552c-1.298-3.149-5.577-15.863,1.211-33.082
		c0,0,10.497-3.357,34.383,12.816c9.972-2.771,20.666-4.16,31.29-4.208c10.62,0.048,21.321,1.437,31.312,4.208
		c23.861-16.173,34.341-12.816,34.341-12.816c6.804,17.219,2.526,29.932,1.229,33.082c8.013,8.755,12.864,19.905,12.864,33.552
		c0,48.013-29.242,58.58-57.077,61.678c4.483,3.877,8.478,11.485,8.478,23.146c0,16.725-0.146,30.188-0.146,34.304
		c0,3.327,2.252,7.225,8.588,5.999C214.229,227.051,250,180.209,250,125C250,55.962,194.034,0,125.002,0z"/>
	<path fill="#4C4C4C" d="M47.344,179.473c-0.275,0.623-1.253,0.809-2.143,0.38c-0.908-0.408-1.415-1.253-1.122-1.876
		c0.269-0.639,1.247-0.816,2.153-0.392C47.14,177.994,47.658,178.851,47.344,179.473L47.344,179.473z M45.806,178.333"/>
	<path fill="#4C4C4C" d="M52.408,185.122c-0.596,0.55-1.763,0.295-2.553-0.578c-0.819-0.874-0.97-2.038-0.366-2.6
		c0.615-0.55,1.745-0.291,2.563,0.578C52.871,183.403,53.031,184.559,52.408,185.122L52.408,185.122z M51.215,183.839"/>
	<path fill="#4C4C4C" d="M57.336,192.318c-0.766,0.533-2.02,0.036-2.794-1.075c-0.766-1.112-0.766-2.446,0.018-2.98
		c0.774-0.533,2.01-0.052,2.794,1.048C58.119,190.442,58.119,191.776,57.336,192.318L57.336,192.318z M57.336,192.318"/>
	<path fill="#4C4C4C" d="M64.088,199.276c-0.686,0.756-2.145,0.55-3.212-0.481c-1.094-1.007-1.397-2.438-0.712-3.194
		c0.695-0.756,2.163-0.541,3.238,0.481C64.488,197.088,64.817,198.528,64.088,199.276L64.088,199.276z M64.088,199.276"/>
	<path fill="#4C4C4C" d="M73.403,203.315c-0.303,0.979-1.708,1.424-3.124,1.006c-1.415-0.428-2.338-1.576-2.054-2.563
		c0.293-0.986,1.706-1.451,3.131-1.006C72.77,201.179,73.696,202.316,73.403,203.315L73.403,203.315z M73.403,203.315"/>
	<path fill="#4C4C4C" d="M83.634,204.063c0.034,1.031-1.167,1.883-2.653,1.904c-1.494,0.031-2.705-0.801-2.721-1.816
		c0-1.043,1.174-1.888,2.668-1.912C82.414,202.21,83.634,203.04,83.634,204.063L83.634,204.063z M83.634,204.063"/>
	<path fill="#4C4C4C" d="M93.153,202.441c0.178,1.007-0.855,2.038-2.331,2.313c-1.451,0.266-2.793-0.355-2.979-1.352
		c-0.18-1.03,0.871-2.065,2.321-2.332C91.641,200.816,92.965,201.418,93.153,202.441L93.153,202.441z M93.153,202.441"/>
</g>
</svg>
