<?xml version="1.0" encoding="utf-8"?>
<!-- Generator: Adobe Illustrator 16.0.0, SVG Export Plug-In . SVG Version: 6.00 Build 0)  -->
<!DOCTYPE svg PUBLIC "-//W3C//DTD SVG 1.1//EN" "http://www.w3.org/Graphics/SVG/1.1/DTD/svg11.dtd">
<svg version="1.1" id="Layer_1" xmlns="http://www.w3.org/2000/svg" xmlns:xlink="http://www.w3.org/1999/xlink" x="0px" y="0px"
	 width="193.119px" height="215.998px" viewBox="0 0 193.119 215.998" enable-background="new 0 0 193.119 215.998"
	 xml:space="preserve">
<path fill="#333333" d="M188.354,139.423V89.954H148.35V77.13c0-4.094-3.319-7.412-7.412-7.412h-1.91V55.139h26.371
	c1.228,2.799,4.024,4.765,7.273,4.765c4.379,0,7.941-3.564,7.941-7.941c0-4.38-3.562-7.941-7.941-7.941
	c-3.249,0-6.046,1.963-7.273,4.765h-32.725v20.933h-10.643V15.215c2.801-1.228,4.765-4.024,4.765-7.273
	c0-4.379-3.562-7.941-7.941-7.941c-4.38,0-7.941,3.562-7.941,7.941c0,3.249,1.963,6.046,4.766,7.273v54.503H104.51V20.401H57.326
	c-1.228-2.802-4.024-4.765-7.273-4.765c-4.379,0-7.941,3.562-7.941,7.941c0,4.378,3.562,7.941,7.941,7.941
	c3.249,0,6.046-1.965,7.273-4.765h40.832v42.963H86.63V39.043H37.922c-1.228-2.801-4.024-4.765-7.273-4.765
	c-4.379,0-7.941,3.563-7.941,7.941c0,4.38,3.562,7.941,7.941,7.941c3.249,0,6.046-1.962,7.273-4.765h42.355v24.322H69.859V57.338
	H19.626c-1.227-2.802-4.024-4.764-7.273-4.764c-4.379,0-7.941,3.561-7.941,7.941c0,4.378,3.562,7.941,7.941,7.941
	c3.249,0,6.046-1.964,7.273-4.765h43.88v6.026h-1.775c-4.094,0-7.412,3.318-7.412,7.412v20.639H15.215
	c-1.228-2.801-4.025-4.765-7.274-4.765C3.562,93.004,0,96.566,0,100.945c0,4.379,3.562,7.941,7.941,7.941
	c3.249,0,6.046-1.963,7.274-4.764H54.32v26.471H33.735c-1.249-2.754-4.017-4.678-7.232-4.678c-4.379,0-7.941,3.562-7.941,7.942
	c0,4.379,3.562,7.943,7.941,7.943c3.284,0,6.109-2.005,7.317-4.855h20.5v19.39c0,4.094,3.318,7.412,7.412,7.412h15.997v37.035
	c-2.801,1.228-4.765,4.024-4.765,7.272c0,4.38,3.562,7.942,7.941,7.942c4.379,0,7.941-3.562,7.941-7.942
	c0-3.248-1.963-6.045-4.765-7.272v-37.035h21.58v29.066h31.754c1.228,2.802,4.023,4.765,7.272,4.765c4.38,0,7.942-3.562,7.942-7.94
	c0-4.38-3.562-7.942-7.942-7.942c-3.249,0-6.045,1.964-7.272,4.766h-25.4v-22.714h28.924c4.093,0,7.412-3.318,7.412-7.412v-42.558
	h13.068v43.117c-2.801,1.226-4.765,4.022-4.765,7.273c0,4.379,3.562,7.941,7.941,7.941c4.38,0,7.942-3.562,7.942-7.941
	c0-3.251-1.964-6.048-4.765-7.273v-49.471H148.35V96.307H182v43.117c-2.802,1.228-4.765,4.023-4.765,7.273
	c0,4.38,3.562,7.941,7.941,7.941c4.379,0,7.941-3.562,7.941-7.941C193.119,143.447,191.155,140.651,188.354,139.423z
	 M169.146,48.785c0.873-0.968,2.124-1.588,3.526-1.588c2.627,0,4.765,2.137,4.765,4.765c0,2.626-2.138,4.764-4.765,4.764
	c-1.402,0-2.653-0.62-3.526-1.587c-0.761-0.846-1.238-1.953-1.238-3.177S168.385,49.629,169.146,48.785z M114.09,7.941
	c0-2.627,2.138-4.765,4.765-4.765s4.765,2.138,4.765,4.765c0,1.402-0.62,2.653-1.588,3.526c-0.846,0.761-1.952,1.238-3.177,1.238
	c-1.224,0-2.332-0.478-3.176-1.238C114.71,10.595,114.09,9.344,114.09,7.941z M53.579,26.754c-0.873,0.968-2.124,1.588-3.526,1.588
	c-2.627,0-4.765-2.138-4.765-4.765c0-2.628,2.137-4.765,4.765-4.765c1.402,0,2.653,0.621,3.526,1.588
	c0.761,0.843,1.239,1.952,1.239,3.176C54.818,24.802,54.34,25.909,53.579,26.754z M34.174,45.396
	c-0.873,0.968-2.124,1.588-3.526,1.588c-2.627,0-4.765-2.136-4.765-4.765c0-2.626,2.137-4.765,4.765-4.765
	c1.402,0,2.653,0.621,3.526,1.589c0.761,0.846,1.239,1.952,1.239,3.176C35.414,43.443,34.936,44.552,34.174,45.396z M15.879,63.691
	c-0.873,0.968-2.124,1.588-3.526,1.588c-2.627,0-4.765-2.138-4.765-4.765c0-2.628,2.138-4.765,4.765-4.765
	c1.402,0,2.653,0.62,3.526,1.588c0.761,0.844,1.239,1.952,1.239,3.177C17.118,61.739,16.641,62.846,15.879,63.691z M11.467,104.122
	c-0.873,0.968-2.124,1.588-3.526,1.588c-2.627,0-4.764-2.137-4.764-4.765s2.137-4.765,4.764-4.765c1.402,0,2.654,0.621,3.526,1.589
	c0.761,0.844,1.238,1.952,1.238,3.176C12.706,102.169,12.228,103.277,11.467,104.122z M30.102,136.946
	c-0.875,1.019-2.155,1.677-3.599,1.677c-2.627,0-4.765-2.138-4.765-4.765c0-2.628,2.137-4.765,4.765-4.765
	c1.362,0,2.584,0.58,3.453,1.5c0.808,0.854,1.312,1.998,1.312,3.265C31.268,135.042,30.818,136.112,30.102,136.946z M85.669,208.055
	c0,2.629-2.137,4.765-4.765,4.765c-2.627,0-4.765-2.136-4.765-4.765c0-1.4,0.62-2.653,1.589-3.525
	c0.845-0.761,1.952-1.238,3.176-1.238s2.332,0.478,3.176,1.238C85.049,205.402,85.669,206.655,85.669,208.055z M141.162,186.461
	c0.872-0.968,2.123-1.588,3.525-1.588c2.628,0,4.765,2.137,4.765,4.765c0,2.627-2.137,4.765-4.765,4.765
	c-1.402,0-2.653-0.621-3.525-1.589c-0.762-0.845-1.239-1.952-1.239-3.176C139.922,188.413,140.4,187.306,141.162,186.461z
	 M167.773,160.642c0.967,0.873,1.588,2.122,1.588,3.526c0,2.626-2.138,4.766-4.766,4.766c-2.627,0-4.765-2.14-4.765-4.766
	c0-1.404,0.621-2.653,1.588-3.526c0.846-0.761,1.953-1.238,3.177-1.238C165.82,159.404,166.927,159.881,167.773,160.642z
	 M185.177,151.46c-2.628,0-4.766-2.136-4.766-4.764c0-1.402,0.621-2.65,1.589-3.525c0.845-0.763,1.952-1.24,3.177-1.24
	s2.331,0.478,3.177,1.24c0.967,0.875,1.588,2.123,1.588,3.525C189.942,149.325,187.804,151.46,185.177,151.46z"/>
</svg>
