<?xml version="1.0" encoding="utf-8"?>
<!-- Generator: Adobe Illustrator 16.0.0, SVG Export Plug-In . SVG Version: 6.00 Build 0)  -->
<!DOCTYPE svg PUBLIC "-//W3C//DTD SVG 1.1//EN" "http://www.w3.org/Graphics/SVG/1.1/DTD/svg11.dtd">
<svg version="1.1" id="Layer_1" xmlns="http://www.w3.org/2000/svg" xmlns:xlink="http://www.w3.org/1999/xlink" x="0px" y="0px"
	 width="216px" height="216px" viewBox="0 0 216 216" enable-background="new 0 0 216 216" xml:space="preserve">
<linearGradient id="path1948_2_" gradientUnits="userSpaceOnUse" x1="-429.8384" y1="484.2407" x2="-220.3088" y2="303.9685" gradientTransform="matrix(0.5625 0 0 -0.568 237.7258 281.193)">
	<stop  offset="0" style="stop-color:#5A9FD4"/>
	<stop  offset="1" style="stop-color:#306998"/>
</linearGradient>
<path id="path1948_1_" fill="url(#path1948_2_)" d="M106.728,0.001c-8.809,0.042-17.222,0.792-24.624,2.103
	C60.297,5.957,56.338,14.02,56.338,28.89v19.639h51.529v6.546H56.338H37c-14.977,0-28.09,9.001-32.192,26.125
	c-4.731,19.628-4.942,31.876,0,52.372c3.663,15.257,12.411,26.126,27.387,26.126h17.717v-23.543
	c0-17.008,14.716-32.012,32.192-32.012h51.47c14.327,0,25.765-11.796,25.765-26.186V28.89c0-13.964-11.778-24.456-25.765-26.786
	C124.722,0.63,115.538-0.038,106.728,0.001z M78.86,15.797c5.323,0,9.669,4.418,9.669,9.85c0,5.413-4.346,9.79-9.669,9.79
	c-5.342,0-9.669-4.377-9.669-9.79C69.191,20.215,73.518,15.797,78.86,15.797z"/>
<linearGradient id="path1950_2_" gradientUnits="userSpaceOnUse" x1="-139.312" y1="194.8794" x2="-214.1297" y2="300.7334" gradientTransform="matrix(0.5625 0 0 -0.568 237.7258 281.193)">
	<stop  offset="0" style="stop-color:#FFD43B"/>
	<stop  offset="1" style="stop-color:#FFE873"/>
</linearGradient>
<path id="path1950_1_" fill="url(#path1950_2_)" d="M165.765,55.076v22.883c0,17.741-15.041,32.672-32.191,32.672h-51.47
	c-14.099,0-25.766,12.068-25.766,26.186v49.068c0,13.966,12.143,22.181,25.766,26.186c16.312,4.798,31.953,5.665,51.47,0
	c12.973-3.756,25.765-11.315,25.765-26.186v-19.64h-51.471v-6.546h51.471h25.766c14.978,0,20.559-10.447,25.765-26.126
	c5.382-16.141,5.152-31.664,0-52.372c-3.701-14.908-10.77-26.125-25.765-26.125H165.765z M136.816,179.337
	c5.343,0,9.671,4.378,9.671,9.79c0,5.434-4.328,9.85-9.671,9.85c-5.322,0-9.669-4.416-9.669-9.85
	C127.147,183.715,131.494,179.337,136.816,179.337z"/>
</svg>
