<?xml version="1.0" encoding="utf-8"?>
<!-- Generator: Adobe Illustrator 16.0.0, SVG Export Plug-In . SVG Version: 6.00 Build 0)  -->
<!DOCTYPE svg PUBLIC "-//W3C//DTD SVG 1.1//EN" "http://www.w3.org/Graphics/SVG/1.1/DTD/svg11.dtd">
<svg version="1.1" id="Layer_1" xmlns="http://www.w3.org/2000/svg" xmlns:xlink="http://www.w3.org/1999/xlink" x="0px" y="0px"
	 width="216px" height="216px" viewBox="0 0 216 216" enable-background="new 0 0 216 216" xml:space="preserve">
<path fill="#00539B" d="M174.049,173.03c0.213,0.586,0.599,1.042,1.152,1.377c0.553,0.335,1.301,0.501,2.249,0.501
	c0.805,0,1.525-0.12,2.167-0.363c0.641-0.241,1.308-0.595,2.004-1.062c0.697-0.465,1.209-0.888,1.534-1.27
	c0.453-0.551,0.854-1.343,1.199-2.38c0.347-1.037,0.521-2.079,0.521-3.119c0-0.549-0.068-1.056-0.204-1.517
	c-0.135-0.461-0.345-0.855-0.632-1.187c-0.286-0.331-0.712-0.6-1.278-0.805c-0.563-0.207-1.188-0.312-1.873-0.312
	c-0.819,0-1.592,0.159-2.32,0.471c-0.729,0.315-1.397,0.713-2.005,1.195c-0.611,0.48-1.034,0.868-1.272,1.163
	c-0.382,0.469-0.738,1.237-1.069,2.302c-0.329,1.067-0.496,2.092-0.496,3.078C173.725,171.803,173.833,172.445,174.049,173.03
	L174.049,173.03z M177.071,167.377c0.354-1.328,0.759-2.229,1.214-2.703c0.454-0.473,0.999-0.711,1.637-0.711
	c0.62,0,1.125,0.22,1.511,0.652c0.387,0.433,0.578,1.136,0.578,2.106c0,1.146-0.166,2.345-0.5,3.603
	c-0.232,0.861-0.485,1.535-0.759,2.024c-0.275,0.488-0.577,0.843-0.908,1.061c-0.331,0.22-0.724,0.328-1.177,0.328
	c-0.678,0-1.203-0.21-1.572-0.632s-0.555-1.121-0.555-2.1C176.54,169.916,176.715,168.705,177.071,167.377L177.071,167.377z
	 M188.03,164.577c0.563,0,1.085,0.003,1.562,0.01l-1.725,8.919c-0.455,2.44-0.821,4.043-1.1,4.807
	c-0.145,0.382-0.313,0.645-0.507,0.792c-0.194,0.146-0.409,0.22-0.64,0.22c-0.239,0-0.455-0.083-0.649-0.248
	c-0.197-0.166-0.379-0.439-0.546-0.819l-0.38,0.071c-0.089,0.428-0.187,0.826-0.293,1.187c-0.108,0.363-0.273,0.839-0.498,1.429
	c0.328,0.134,0.629,0.2,0.908,0.2c0.374,0,0.764-0.106,1.168-0.321c0.773-0.407,1.534-1.043,2.288-1.915
	c0.751-0.872,1.351-1.876,1.801-3.018c0.448-1.141,0.992-2.996,1.629-5.565l1.32-5.737c0.264-0.007,0.663-0.01,1.198-0.01
	c0.851,0,1.465,0.003,1.84,0.01c0.08-0.392,0.204-0.802,0.373-1.231l-0.121-0.194c-0.255,0.048-0.643,0.089-1.161,0.119
	c-0.854,0.058-1.39,0.081-1.604,0.071h-0.274c0.182-1.055,0.417-2.112,0.703-3.169c0.111-0.396,0.223-0.69,0.33-0.881
	c0.107-0.189,0.253-0.341,0.438-0.452c0.181-0.111,0.372-0.168,0.572-0.168c0.255,0,0.541,0.104,0.86,0.312
	c0.316,0.207,0.645,0.563,0.979,1.062l0.359-0.07c0.134-0.957,0.356-1.973,0.675-3.046c-0.334-0.127-0.662-0.191-0.979-0.191
	c-0.485,0-0.862,0.058-1.13,0.174c-0.264,0.114-0.822,0.478-1.671,1.091c-0.848,0.611-1.617,1.239-2.31,1.884
	c-0.447,0.42-0.777,0.831-0.991,1.229c-0.135,0.253-0.278,0.722-0.43,1.404c-0.063,0.304-0.115,0.514-0.154,0.632
	c-0.334,0.154-0.764,0.304-1.285,0.452c-0.524,0.149-0.913,0.271-1.168,0.365l-0.106,0.608
	C187.501,164.58,187.742,164.577,188.03,164.577L188.03,164.577L188.03,164.577z"/>
<path fill="#00539B" d="M22.506,191.444h-2.163c-0.033,1.459-0.123,2.395-0.271,2.805c-0.098,0.312-0.253,0.501-0.466,0.566
	c-0.557,0.197-1.899,0.295-4.027,0.295c-0.736,0-2.152-0.056-4.247-0.174v-3.428c0-4.263,0.093-7.212,0.28-8.846
	c0.459-0.03,1.325-0.066,2.597-0.111c1.271-0.043,2.047-0.066,2.326-0.066c1.445,0,2.704,0.094,3.779,0.281
	c1.075,0.188,1.759,0.38,2.056,0.576c0.097,0.048,0.171,0.13,0.221,0.245c0.065,0.146,0.114,0.577,0.148,1.295
	c0.082,1.371,0.123,2.252,0.123,2.644h2.01c0.017-1.085,0.092-2.353,0.222-3.799c0.13-1.447,0.286-2.641,0.465-3.576l-0.221-0.347
	c-1.481-0.164-3.051-0.247-4.711-0.247l-11.866,0.231l-8.756-0.181v2.062c1.59,0.1,2.563,0.188,2.917,0.271
	c0.357,0.083,0.589,0.169,0.698,0.26c0.106,0.091,0.186,0.228,0.234,0.407c0.15,0.526,0.24,1.424,0.274,2.689
	c0.153,4.38,0.23,6.684,0.23,6.914v10.222c0,0.873-0.042,2.308-0.127,4.31c-0.087,1.999-0.153,3.188-0.202,3.566
	c-0.083,0.658-0.2,1.087-0.348,1.284c-0.1,0.132-0.224,0.221-0.372,0.271c-0.3,0.114-1.399,0.189-3.304,0.223v2.036
	c3.032-0.12,5.249-0.178,6.65-0.178l9.691,0.178v-1.96c-2.286-0.165-3.576-0.3-3.871-0.407c-0.297-0.106-0.502-0.249-0.617-0.431
	c-0.165-0.263-0.293-1.179-0.387-2.747c-0.094-1.569-0.14-4.299-0.14-8.19v-2.736c0.934-0.016,1.587-0.021,1.965-0.021
	c2.618,0,4.534,0.106,5.744,0.319c0.476,0.097,0.769,0.255,0.885,0.468c0.229,0.427,0.368,1.666,0.417,3.718h2.163
	C22.506,197.8,22.506,194.236,22.506,191.444L22.506,191.444L22.506,191.444z M36.235,213.895c1.066,0,2.957,0.033,5.667,0.104
	c3.566,0.083,5.497,0.127,5.793,0.127c2.103,0,3.655-0.044,4.659-0.127c0.476-0.051,0.953-0.146,1.428-0.28
	c0.017-0.314,0.092-1.25,0.224-2.811l0.619-4.981c0-0.079,0.024-0.353,0.075-0.811h-2.037c-0.312,1.616-0.634,3.054-0.962,4.31
	c-0.148,0.494-0.289,0.8-0.42,0.914c-0.132,0.116-0.534,0.225-1.208,0.325c-1.859,0.286-4.038,0.433-6.541,0.433
	c-0.823,0-2.369-0.061-4.64-0.18c-0.016-0.493-0.029-1.896-0.037-4.203c-0.008-2.311-0.021-4.64-0.038-6.99
	c-0.017-4.456-0.026-6.83-0.026-7.127c0-2.761,0.039-5.046,0.116-6.854c0.075-1.809,0.154-2.824,0.236-3.047
	c0.083-0.221,0.213-0.382,0.394-0.48c0.41-0.213,1.546-0.36,3.403-0.441v-2.166c-2.68,0.12-5.515,0.181-8.505,0.181
	c-2.68,0-5.061-0.061-7.15-0.181v2.166c2.144,0.081,3.407,0.244,3.785,0.493c0.182,0.099,0.306,0.244,0.371,0.441
	c0.148,0.446,0.251,2.213,0.308,5.305c0.028,1.218,0.042,4.426,0.042,9.621c0,3.538-0.034,6.566-0.101,9.09
	c-0.068,2.526-0.143,3.993-0.225,4.405c-0.016,0.097-0.056,0.189-0.123,0.271c-0.098,0.132-0.318,0.297-0.662,0.494
	c-0.768,0.46-1.365,0.781-1.79,0.961v1.27C32.175,213.971,34.623,213.895,36.235,213.895L36.235,213.895L36.235,213.895z
	 M57.503,207.046c1.511,2.615,3.595,4.592,6.249,5.934c2.653,1.34,5.83,2.01,9.526,2.01c3.418,0,6.458-0.551,9.121-1.653
	c1.938-0.82,3.668-1.998,5.188-3.528c1.52-1.527,2.673-3.28,3.463-5.253c1.067-2.647,1.601-5.517,1.601-8.609
	c0-1.826-0.184-3.493-0.554-5.008c-0.37-1.512-0.917-2.902-1.64-4.168c-0.722-1.267-1.779-2.504-3.167-3.713
	c-1.387-1.208-2.986-2.134-4.794-2.775c-2.432-0.836-5.142-1.258-8.134-1.258c-3.007,0-5.784,0.438-8.331,1.31
	c-1.989,0.69-3.83,1.814-5.522,3.377c-1.693,1.562-2.994,3.462-3.906,5.698c-0.913,2.237-1.368,4.861-1.368,7.87
	C55.236,201.176,55.991,204.431,57.503,207.046L57.503,207.046z M63.967,188.494c0.766-2.207,1.991-3.876,3.675-5.004
	c1.686-1.128,3.729-1.692,6.13-1.692c2.105,0,3.794,0.354,5.068,1.064c1.274,0.706,2.38,1.732,3.317,3.075s1.657,2.97,2.159,4.881
	c0.501,1.91,0.752,4.018,0.752,6.325c0,3.361-0.464,6.218-1.394,8.572c-0.929,2.356-2.21,4.03-3.847,5.018
	c-1.637,0.988-3.491,1.481-5.561,1.481c-2.237,0-4.177-0.518-5.821-1.556c-1.645-1.037-2.993-2.812-4.045-5.325
	c-1.052-2.512-1.579-5.687-1.579-9.525C62.822,193.139,63.204,190.702,63.967,188.494L63.967,188.494z M96.243,182.165
	c0.163,0.099,0.286,0.239,0.367,0.417c0.163,0.414,0.261,1.646,0.293,3.702l0.127,5.203v9.151l-0.204,7.203
	c-0.048,1.3-0.13,2.269-0.246,2.911c-0.048,0.344-0.119,0.574-0.208,0.69c-0.09,0.114-0.233,0.197-0.43,0.245
	c-0.344,0.116-1.448,0.206-3.314,0.273v2.163c2.184-0.12,4.558-0.178,7.118-0.178c2.875,0,5.717,0.058,8.528,0.178v-2.163
	c-1.579-0.033-2.532-0.083-2.861-0.149c-0.329-0.063-0.566-0.151-0.715-0.258c-0.148-0.106-0.253-0.226-0.32-0.358
	c-0.13-0.279-0.222-0.878-0.271-1.799c-0.034-0.46-0.085-2.38-0.154-5.766c-0.05-2.76-0.076-5.37-0.076-7.836
	c0-1.561,0.053-4.665,0.154-9.314c0.05-2.076,0.103-3.409,0.152-4.003c0.772-0.13,1.554-0.197,2.344-0.197
	c1.778,0,3.013,0.124,3.703,0.371c1.07,0.395,1.968,1.091,2.691,2.097c0.724,1,1.087,2.259,1.087,3.771
	c0,1.495-0.348,2.848-1.038,4.057c-0.69,1.208-1.54,2.046-2.543,2.516c-1.006,0.468-2.496,0.67-4.472,0.603l-0.271,0.814
	c0.492,0.361,1.002,0.903,1.53,1.626c1.052,1.429,2.334,3.39,3.848,5.888l5.278,8.695c0.313,0.576,0.509,1.044,0.593,1.406
	c1.299-0.069,2.604-0.104,3.922-0.104c1.133,0,2.965,0.034,5.498,0.104v-2.163c-0.773-0.018-1.292-0.083-1.555-0.197
	c-0.264-0.113-0.534-0.316-0.814-0.611c-0.278-0.294-1.035-1.255-2.271-2.886c-0.081-0.114-0.631-0.929-1.65-2.446l-3.825-5.698
	c-0.099-0.146-0.192-0.303-0.283-0.465c-0.09-0.162-0.397-0.628-0.924-1.394c-0.526-0.767-0.996-1.518-1.406-2.249
	c2.569-0.955,4.472-2.247,5.708-3.876c1.236-1.626,1.854-3.436,1.854-5.428c0-1.677-0.452-3.099-1.359-4.267
	c-0.903-1.168-1.996-1.937-3.278-2.307c-1.28-0.369-3.214-0.554-5.795-0.554c-1.332,0-3.018,0.046-5.055,0.14
	c-1.234,0.077-2.714,0.113-4.439,0.113c-2.023,0-3.586-0.02-4.687-0.059c-2.251-0.08-3.567-0.118-3.945-0.118v2.01
	C94.646,181.803,95.853,181.968,96.243,182.165L96.243,182.165L96.243,182.165z M135.58,179.789c-2.686,0-5.063-0.061-7.137-0.181
	v2.166c1.795,0.063,2.837,0.133,3.125,0.21c0.289,0.072,0.486,0.167,0.593,0.283c0.108,0.114,0.187,0.278,0.234,0.493
	c0.117,0.526,0.216,1.834,0.297,3.924c0.034,0.938,0.053,3.045,0.053,6.319v10.318c0,1.678-0.068,3.504-0.203,5.479
	c-0.083,1.351-0.15,2.124-0.199,2.321c-0.033,0.147-0.109,0.278-0.233,0.395c-0.125,0.114-0.36,0.205-0.703,0.271
	c-0.265,0.05-1.251,0.106-2.963,0.174v2.163c2.073-0.12,4.436-0.178,7.086-0.178c3.045,0,5.91,0.058,8.594,0.178v-2.163
	c-1.626-0.033-2.607-0.088-2.948-0.162c-0.339-0.073-0.587-0.172-0.744-0.296c-0.157-0.123-0.271-0.3-0.336-0.53
	c-0.165-0.511-0.248-1.613-0.248-3.309l-0.076-4.517v-9.947c0-0.313,0.033-2.493,0.102-6.54c0.016-1.186,0.042-1.992,0.075-2.42
	c0.049-0.79,0.134-1.325,0.249-1.605c0.048-0.163,0.141-0.299,0.274-0.407c0.13-0.106,0.354-0.197,0.671-0.271
	c0.313-0.072,1.308-0.137,2.981-0.184v-2.166C141.439,179.729,138.591,179.789,135.58,179.789L135.58,179.789L135.58,179.789z
	 M154.657,213.947l7.321,0.178c3.318,0,6.15-0.367,8.502-1.099c2.348-0.73,4.527-1.93,6.541-3.589
	c2.013-1.661,3.594-3.725,4.744-6.193c1.148-2.469,1.725-5.272,1.725-8.414c0-2.468-0.387-4.736-1.158-6.811
	c-0.462-1.231-1.14-2.383-2.033-3.452c-0.897-1.069-1.993-1.995-3.29-2.776c-1.298-0.78-2.822-1.349-4.572-1.702
	c-1.75-0.354-4.079-0.531-6.986-0.531c-1.265,0-2.95,0.03-5.053,0.088c-2.908,0.096-4.888,0.144-5.94,0.144l-8.943-0.181v1.985
	c1.784,0.231,2.815,0.381,3.096,0.444c0.276,0.066,0.48,0.165,0.614,0.298c0.081,0.081,0.146,0.197,0.197,0.345
	c0.162,0.643,0.267,2.122,0.317,4.441c0.086,4.193,0.128,7.377,0.128,9.549v4.047c0,4.952-0.096,8.53-0.28,10.733
	c-0.521,0.38-1.092,0.743-1.709,1.09c-0.326,0.182-0.553,0.312-0.684,0.396v1.188L154.657,213.947L154.657,213.947z
	 M156.789,201.396v-5.663c0-6.449,0.086-10.841,0.255-13.169c1.53-0.222,2.926-0.331,4.19-0.331c3.371,0,5.886,0.294,7.547,0.888
	c1.659,0.59,3.032,1.544,4.117,2.86c1.085,1.313,1.866,2.848,2.342,4.598c0.477,1.751,0.716,3.563,0.716,5.438
	c0,2.055-0.239,3.971-0.716,5.746c-0.476,1.775-1.146,3.304-2.008,4.584c-0.865,1.282-1.763,2.255-2.701,2.912
	c-0.938,0.658-2.03,1.157-3.28,1.505c-1.693,0.458-3.634,0.688-5.819,0.688c-1.397,0-2.857-0.127-4.388-0.38
	C156.875,209.512,156.789,206.286,156.789,201.396L156.789,201.396L156.789,201.396z M184.764,213.947l5.684,0.178v-2.036
	c-1.957-0.066-3.131-0.215-3.523-0.443c-0.263-0.164-0.394-0.441-0.394-0.836c0-0.557,0.411-1.963,1.229-4.225l1.079-2.948h12.729
	l2.111,5.404c0.377,0.934,0.566,1.605,0.566,2.016c0,0.328-0.126,0.562-0.381,0.698c-0.256,0.14-1.377,0.251-3.366,0.334v2.036
	l8.651-0.178l6.85,0.178v-2.036c-0.477-0.051-0.838-0.091-1.085-0.124c-0.771-0.051-1.252-0.106-1.44-0.173
	c-0.188-0.065-0.358-0.164-0.505-0.295c-0.147-0.134-0.304-0.347-0.469-0.643l-0.986-2.269l-1.527-3.379l-11.016-25.749h-3.512
	l-2.17,5.598l-6.433,15.883c-1.217,3.012-2.037,5.024-2.464,6.044c-0.937,2.17-1.502,3.424-1.689,3.761
	c-0.189,0.337-0.375,0.584-0.554,0.741c-0.182,0.156-0.399,0.271-0.653,0.344c-0.253,0.073-1.049,0.161-2.379,0.261v2.036
	L184.764,213.947L184.764,213.947z M195.058,188.024l5.281,12.762c-1.501,0.053-3.197,0.076-5.091,0.076
	c-1.961,0-3.716-0.023-5.264-0.076L195.058,188.024L195.058,188.024z"/>
<path fill="#00539B" d="M1.357,159.696c0.139,0.102,0.227,0.19,0.261,0.268c0.062,0.14,0.104,0.359,0.126,0.661
	c0.034,0.773,0.05,1.642,0.05,2.606v2.628l-0.009,1.985c0,1.091,0.016,1.759,0.052,2.008c0.048,0.4,0.183,0.815,0.402,1.247
	c0.222,0.431,0.541,0.82,0.963,1.167c0.42,0.349,0.961,0.627,1.624,0.834c0.911,0.281,1.89,0.423,2.938,0.423
	c0.897,0,1.686-0.095,2.369-0.289c0.684-0.192,1.272-0.479,1.769-0.859c0.497-0.378,0.881-0.802,1.153-1.272
	c0.272-0.468,0.454-1.034,0.544-1.696c0.09-0.66,0.134-1.301,0.134-1.923v-2.43c0-0.717,0.024-1.695,0.07-2.938
	c0.047-1.241,0.096-1.939,0.148-2.096c0.053-0.154,0.12-0.261,0.202-0.314c0.165-0.104,0.569-0.156,1.209-0.156v-0.853l-2.295,0.066
	c-0.124,0.007-0.216,0.01-0.278,0.01c-0.235,0-0.976-0.025-2.224-0.076v0.853c0.764,0.022,1.261,0.089,1.488,0.207
	c0.11,0.056,0.189,0.14,0.238,0.248c0.076,0.178,0.125,0.703,0.144,1.573c0.01,0.401,0.013,1.51,0.013,3.331v2.111
	c0,1.47-0.121,2.466-0.362,2.991c-0.241,0.522-0.646,0.951-1.214,1.277c-0.569,0.327-1.333,0.491-2.292,0.491
	c-0.834,0-1.522-0.121-2.062-0.367c-0.542-0.244-0.943-0.565-1.205-0.961c-0.263-0.397-0.424-0.921-0.486-1.568
	c-0.027-0.298-0.042-1.076-0.042-2.337l-0.009-1.213v-2.4c0-1.456,0.047-2.396,0.14-2.824c0.034-0.18,0.104-0.3,0.208-0.362
	c0.201-0.132,0.674-0.197,1.42-0.197v-0.853l-0.382,0.013l-1.397,0.038l-1.397,0.025L0,158.697v0.853L1.357,159.696L1.357,159.696z
	 M19.742,173.168c1.149-0.052,2.061-0.077,2.731-0.077c0.182,0,0.926,0.013,2.235,0.038v-0.84c-0.095,0.007-0.164,0.012-0.205,0.012
	c-0.207,0-0.536-0.027-0.984-0.083c-0.165-0.021-0.28-0.058-0.345-0.109c-0.065-0.052-0.112-0.118-0.14-0.201
	c-0.056-0.172-0.096-0.658-0.124-1.458c-0.05-1.158-0.077-2.273-0.077-3.343v-5.151c4.086,4.986,7.241,8.723,9.468,11.213
	c0.601,0.082,1.194,0.171,1.775,0.267l0.133-0.092c-0.092-0.98-0.138-3.763-0.138-8.349c0-0.586,0.015-1.496,0.044-2.728
	c0.029-1.229,0.096-2.017,0.198-2.363c0.021-0.067,0.059-0.121,0.114-0.154c0.16-0.104,0.66-0.166,1.5-0.187v-0.865
	c-1.076,0.051-1.954,0.076-2.636,0.076c-0.703,0-1.476-0.025-2.316-0.076v0.865c0.917,0.013,1.455,0.083,1.613,0.207
	c0.097,0.076,0.159,0.241,0.187,0.498c0.082,0.653,0.124,2.836,0.124,6.549v2.39c-0.958-0.984-2.164-2.35-3.618-4.097
	c-2.018-2.419-3.737-4.558-5.156-6.412l-0.953,0.038l-1.499,0.038c-0.414,0-1.059-0.025-1.934-0.076v0.865
	c0.728,0.048,1.169,0.094,1.321,0.134c0.151,0.043,0.259,0.101,0.324,0.172c0.065,0.073,0.116,0.185,0.15,0.337
	c0.034,0.151,0.056,0.479,0.062,0.983l0.052,3.01v3.321c0,0.917-0.014,1.663-0.042,2.234c-0.058,1.008-0.107,1.643-0.15,1.905
	c-0.034,0.191-0.077,0.321-0.128,0.382c-0.053,0.062-0.116,0.108-0.193,0.134c-0.117,0.036-0.583,0.073-1.396,0.114V173.168
	L19.742,173.168z M43.578,158.773c-1.124,0-2.121-0.025-2.989-0.076v0.916c0.748,0.029,1.181,0.058,1.302,0.089
	c0.118,0.03,0.202,0.07,0.246,0.118c0.043,0.048,0.076,0.118,0.098,0.207c0.047,0.22,0.089,0.767,0.124,1.642
	c0.017,0.393,0.024,1.275,0.024,2.647v4.318c0,0.702-0.029,1.466-0.087,2.294c-0.034,0.565-0.062,0.888-0.083,0.971
	c-0.013,0.062-0.045,0.118-0.098,0.167c-0.05,0.048-0.148,0.086-0.292,0.111c-0.111,0.022-0.521,0.046-1.233,0.073v0.917
	c0.869-0.052,1.859-0.077,2.968-0.077c1.275,0,2.475,0.025,3.599,0.077v-0.917c-0.681-0.014-1.093-0.035-1.237-0.066
	c-0.142-0.032-0.246-0.073-0.312-0.124c-0.065-0.051-0.112-0.128-0.14-0.223c-0.07-0.214-0.104-0.675-0.104-1.385l-0.026-1.892
	v-4.163c0-0.13,0.015-1.043,0.043-2.739c0.007-0.494,0.019-0.833,0.033-1.012c0.021-0.331,0.056-0.555,0.104-0.671
	c0.02-0.07,0.059-0.128,0.114-0.172c0.055-0.045,0.148-0.081,0.28-0.111c0.13-0.032,0.545-0.058,1.245-0.08v-0.916
	C46.032,158.748,44.839,158.773,43.578,158.773L43.578,158.773L43.578,158.773z M60.093,173.244
	c0.418-1.178,1.222-3.187,2.408-6.023l1.395-3.329l0.735-1.715c0.591-1.42,0.981-2.2,1.166-2.347c0.111-0.083,0.5-0.154,1.168-0.217
	v-0.916l-2.231,0.076l-2.626-0.076v0.916c0.31,0.007,0.69,0.032,1.138,0.072c0.2,0.014,0.324,0.029,0.373,0.052
	c0.062,0.029,0.11,0.07,0.149,0.129c0.038,0.06,0.057,0.146,0.057,0.265c0,0.082-0.008,0.165-0.021,0.246
	c-0.07,0.283-0.258,0.839-0.568,1.664c-0.435,1.173-0.682,1.825-0.735,1.957l-2.299,5.688l-2.616-6.382
	c-0.028-0.077-0.05-0.141-0.067-0.191c-0.017-0.053-0.158-0.396-0.418-1.031c-0.457-1.101-0.682-1.756-0.682-1.963
	c0-0.104,0.029-0.186,0.087-0.253c0.059-0.065,0.163-0.114,0.314-0.151c0.263-0.06,0.684-0.095,1.263-0.102v-0.916l-3.713,0.076
	c-0.358,0-1.365-0.025-3.02-0.076v0.916c0.648,0.016,1.075,0.076,1.282,0.187c0.138,0.076,0.34,0.377,0.606,0.903
	c0.264,0.528,0.973,2.165,2.125,4.914l1.468,3.503c0.538,1.302,1.099,2.676,1.686,4.124H60.093L60.093,173.244z M75.053,173.078
	c0.619,0,1.749,0.013,3.389,0.038l1.663,0.038c0.813,0,1.44-0.025,1.881-0.076l0.132-0.134c0-0.881,0.075-2.003,0.225-3.366h-0.854
	c-0.137,0.923-0.267,1.548-0.391,1.878c-0.041,0.097-0.087,0.159-0.134,0.188c-0.145,0.089-0.531,0.157-1.158,0.203
	c-0.629,0.05-1.313,0.073-2.055,0.073c-0.762,0-1.42-0.025-1.977-0.076c-0.016-0.347-0.025-0.762-0.025-1.245v-4.329
	c0.437-0.051,0.993-0.076,1.665-0.076c0.749,0,1.364,0.038,1.843,0.114c0.215,0.035,0.363,0.118,0.446,0.258
	c0.111,0.185,0.163,0.675,0.156,1.474H80.7l-0.05-2.261l0.05-2.271h-0.841c-0.013,0.614-0.061,1.05-0.143,1.312
	c-0.034,0.104-0.084,0.174-0.149,0.217c-0.065,0.039-0.282,0.064-0.651,0.071c-0.981,0.028-1.55,0.041-1.707,0.041
	c-0.508,0-0.993-0.016-1.459-0.051v-2.132c0-1.206,0.046-2.201,0.14-2.984c0.639-0.051,1.263-0.076,1.874-0.076
	c0.653,0,1.319,0.038,1.998,0.113c0.46,0.049,0.735,0.104,0.825,0.167c0.053,0.039,0.096,0.109,0.122,0.206
	c0.049,0.185,0.08,0.687,0.093,1.499h0.803c0.062-0.891,0.097-1.388,0.103-1.49l0.199-1.492l-0.073-0.136
	c-0.158-0.045-0.272-0.066-0.34-0.066c-0.758-0.029-1.262-0.042-1.509-0.042l-2.097,0.053c-1.156,0.021-2.207,0.03-3.15,0.03
	c-0.433,0-0.888,0.003-1.363,0.003l-2.396,0.022v0.802c0.81,0.041,1.306,0.104,1.494,0.188c0.068,0.034,0.12,0.086,0.156,0.153
	c0.075,0.173,0.124,0.647,0.146,1.425c0.016,1.166,0.024,1.836,0.024,2.018v4.65c0,0.537-0.028,1.397-0.084,2.583
	c-0.028,0.647-0.063,1.115-0.106,1.405c-0.259,0.206-0.595,0.407-1.005,0.601v0.557C73.736,173.104,74.887,173.078,75.053,173.078
	L75.053,173.078L75.053,173.078z M88.65,159.757c0.067,0.041,0.119,0.1,0.153,0.177c0.068,0.173,0.109,0.688,0.124,1.551l0.05,2.183
	v3.837l-0.09,3.02c-0.021,0.546-0.055,0.953-0.103,1.222c-0.021,0.145-0.049,0.242-0.088,0.288c-0.037,0.049-0.098,0.084-0.18,0.104
	c-0.143,0.051-0.605,0.087-1.385,0.114v0.917c0.916-0.052,1.909-0.077,2.982-0.077c1.205,0,2.396,0.025,3.576,0.077v-0.917
	c-0.662-0.014-1.062-0.033-1.199-0.061c-0.139-0.028-0.238-0.063-0.302-0.109c-0.062-0.046-0.105-0.094-0.133-0.151
	c-0.056-0.116-0.093-0.369-0.115-0.754c-0.013-0.194-0.033-1.001-0.058-2.423c-0.021-1.16-0.031-2.258-0.031-3.291
	c0-0.656,0.021-1.96,0.063-3.914c0.021-0.867,0.042-1.425,0.065-1.674c0.322-0.056,0.65-0.082,0.98-0.082
	c0.742,0,1.259,0.051,1.549,0.155c0.448,0.166,0.822,0.46,1.125,0.882c0.303,0.42,0.455,0.949,0.455,1.584
	c0,0.63-0.146,1.198-0.435,1.706c-0.291,0.507-0.645,0.86-1.066,1.056c-0.42,0.197-1.045,0.283-1.873,0.255l-0.114,0.342
	c0.207,0.151,0.421,0.381,0.642,0.683c0.441,0.6,0.979,1.424,1.614,2.473l2.214,3.65c0.129,0.243,0.213,0.438,0.247,0.591
	c0.544-0.026,1.093-0.039,1.644-0.039c0.476,0,1.245,0.013,2.307,0.039v-0.917c-0.324-0.006-0.542-0.033-0.651-0.083
	c-0.111-0.047-0.225-0.132-0.342-0.254c-0.117-0.124-0.435-0.528-0.951-1.212c-0.034-0.047-0.266-0.389-0.692-1.025l-1.605-2.391
	c-0.041-0.062-0.08-0.126-0.119-0.195c-0.038-0.067-0.167-0.262-0.388-0.583c-0.22-0.322-0.417-0.636-0.589-0.944
	c1.075-0.399,1.87-0.942,2.386-1.624c0.517-0.683,0.775-1.443,0.775-2.277c0-0.703-0.19-1.301-0.569-1.789
	c-0.379-0.49-0.836-0.813-1.375-0.968c-0.536-0.154-1.346-0.233-2.427-0.233c-0.557,0-1.264,0.019-2.118,0.057
	c-0.516,0.029-1.137,0.045-1.859,0.045c-0.847,0-1.501-0.01-1.963-0.025c-0.944-0.033-1.496-0.051-1.653-0.051v0.853
	C87.979,159.605,88.486,159.674,88.65,159.757L88.65,159.757L88.65,159.757z M115.35,160.781c0.043-0.43,0.113-0.869,0.207-1.315
	l-0.083-0.247c-0.502-0.246-1.098-0.436-1.783-0.567c-0.687-0.131-1.395-0.196-2.125-0.196c-0.705,0-1.392,0.08-2.061,0.232
	c-0.669,0.156-1.268,0.414-1.799,0.771c-0.531,0.356-0.959,0.861-1.284,1.513c-0.324,0.652-0.485,1.365-0.485,2.136
	c0,0.552,0.089,1.065,0.269,1.546c0.179,0.478,0.449,0.888,0.812,1.225c0.361,0.338,0.838,0.596,1.432,0.775
	c0.394,0.116,1.215,0.307,2.462,0.567c0.868,0.2,1.477,0.394,1.821,0.581c0.344,0.186,0.599,0.433,0.761,0.744
	c0.162,0.311,0.243,0.683,0.243,1.118c0,0.518-0.116,0.978-0.349,1.385c-0.229,0.407-0.603,0.729-1.116,0.959
	c-0.516,0.229-1.098,0.345-1.753,0.345c-0.751,0-1.446-0.162-2.081-0.486c-0.634-0.324-1.083-0.703-1.346-1.131
	c-0.09-0.74-0.127-1.358-0.115-1.856h-0.865c-0.006,1.606-0.117,2.805-0.331,3.589c0.793,0.387,1.52,0.661,2.182,0.817
	c0.661,0.159,1.416,0.238,2.264,0.238c1.156,0,2.15-0.165,2.976-0.496c0.52-0.205,1.021-0.519,1.51-0.936s0.872-0.876,1.147-1.381
	c0.366-0.666,0.549-1.441,0.549-2.325c0-0.501-0.066-0.955-0.195-1.359c-0.131-0.4-0.3-0.737-0.503-1.002
	c-0.202-0.264-0.478-0.499-0.821-0.703c-0.344-0.203-0.795-0.379-1.354-0.521c-0.213-0.048-0.676-0.134-1.389-0.258
	c-0.715-0.124-1.27-0.229-1.669-0.312c-0.525-0.137-0.921-0.29-1.188-0.455c-0.27-0.166-0.477-0.389-0.622-0.672
	c-0.143-0.283-0.219-0.652-0.226-1.107c0-0.634,0.257-1.188,0.77-1.66c0.516-0.473,1.243-0.71,2.182-0.71
	c0.655,0,1.247,0.118,1.775,0.351c0.527,0.235,0.896,0.504,1.113,0.808c0.054,0.331,0.089,0.895,0.102,1.692h0.867
	C115.274,161.775,115.306,161.211,115.35,160.781L115.35,160.781z M124.535,158.773c-1.125,0-2.121-0.025-2.989-0.076v0.916
	c0.747,0.029,1.181,0.058,1.301,0.089c0.12,0.03,0.202,0.07,0.245,0.118c0.045,0.048,0.078,0.118,0.099,0.207
	c0.048,0.22,0.089,0.767,0.124,1.642c0.017,0.393,0.024,1.275,0.024,2.647v4.318c0,0.702-0.029,1.466-0.088,2.294
	c-0.035,0.565-0.062,0.888-0.083,0.971c-0.013,0.062-0.046,0.118-0.099,0.167c-0.051,0.048-0.147,0.086-0.291,0.111
	c-0.109,0.022-0.52,0.046-1.232,0.073v0.917c0.868-0.052,1.856-0.077,2.969-0.077c1.275,0,2.474,0.025,3.598,0.077v-0.917
	c-0.681-0.014-1.094-0.035-1.237-0.066c-0.14-0.032-0.245-0.073-0.312-0.124c-0.067-0.051-0.113-0.128-0.141-0.223
	c-0.069-0.214-0.104-0.675-0.104-1.385l-0.025-1.892v-4.163c0-0.13,0.014-1.043,0.044-2.739c0.007-0.494,0.017-0.833,0.032-1.012
	c0.02-0.331,0.054-0.555,0.102-0.671c0.022-0.07,0.061-0.128,0.116-0.172c0.055-0.045,0.148-0.081,0.28-0.111
	c0.13-0.032,0.546-0.058,1.245-0.08v-0.916C126.988,158.748,125.796,158.773,124.535,158.773L124.535,158.773L124.535,158.773z
	 M138.898,173.078c0.918,0,2.046,0.03,3.386,0.09v-0.854c-0.831-0.026-1.325-0.084-1.482-0.17c-0.161-0.088-0.265-0.218-0.312-0.397
	c-0.076-0.304-0.116-1.198-0.116-2.688v-6.192c0-1.646,0.012-2.592,0.03-2.834h1.483c0.792,0,1.471,0.029,2.036,0.083
	c0.18,0.015,0.291,0.038,0.33,0.073c0.05,0.048,0.095,0.194,0.138,0.443c0.073,0.489,0.119,1.003,0.133,1.539h0.854
	c0.019-1.454,0.034-2.208,0.041-2.266c0.013-0.315,0.051-0.685,0.109-1.105l-0.104-0.104c-0.322,0.033-0.643,0.058-0.96,0.07
	c-0.584,0.021-1.744,0.031-3.479,0.031h-4.173c-1.687,0-2.827-0.01-3.417-0.031c-0.366-0.013-0.71-0.037-1.034-0.07l-0.093,0.104
	c0.048,0.352,0.082,0.679,0.103,0.981c0.006,0.182,0.021,0.977,0.051,2.39h0.853c0.013-0.599,0.063-1.14,0.154-1.621
	c0.036-0.201,0.076-0.321,0.126-0.361c0.033-0.035,0.163-0.062,0.391-0.083c0.568-0.048,1.226-0.073,1.97-0.073h1.482
	c0.017,0.201,0.025,1.145,0.025,2.834v6.192c0,1.489-0.039,2.38-0.114,2.678c-0.056,0.192-0.162,0.329-0.314,0.412
	c-0.158,0.083-0.651,0.139-1.479,0.165v0.854C136.789,173.108,137.917,173.078,138.898,173.078L138.898,173.078L138.898,173.078z
	 M155.832,162.681c-0.497-0.971-0.996-1.826-1.497-2.571c-0.339-0.504-0.604-0.846-0.798-1.027c-0.19-0.185-0.499-0.392-0.919-0.627
	c-0.393,0.105-0.774,0.197-1.148,0.278l-2.189,0.435v0.776c0.518,0,0.821,0.022,0.91,0.062c0.145,0.076,0.389,0.3,0.735,0.671
	c0.515,0.564,1.075,1.315,1.673,2.253c0.738,1.15,1.432,2.317,2.08,3.501c0.262,0.498,0.393,0.826,0.393,0.983v1.963
	c0,0.552-0.016,1.221-0.051,2.005c-0.022,0.344-0.058,0.55-0.108,0.622c-0.051,0.068-0.146,0.119-0.28,0.154
	s-0.595,0.064-1.381,0.092v0.917c1.06-0.052,2.108-0.077,3.143-0.077c1.061,0,2.247,0.025,3.564,0.077v-0.917
	c-0.767-0.014-1.225-0.041-1.368-0.083c-0.146-0.041-0.249-0.102-0.313-0.184c-0.062-0.085-0.116-0.325-0.16-0.725
	c-0.045-0.399-0.067-1.038-0.067-1.913v-1.745c0-0.358,0.018-0.616,0.052-0.775c0.047-0.221,0.149-0.48,0.3-0.776
	c0.228-0.433,0.826-1.409,1.793-2.926c0.968-1.519,1.869-2.838,2.705-3.962v-0.465h-1.634c-0.098,0.2-0.334,0.63-0.715,1.292
	c-1.085,1.926-1.738,3.079-1.96,3.458l-1.301,2.106C157.123,165.197,156.637,164.239,155.832,162.681L155.832,162.681
	L155.832,162.681z"/>
<g>
	<polygon fill="#00539B" points="153.663,121.561 153.663,84.436 187.869,84.438 187.869,59.96 153.663,59.96 153.663,25.283 
		191.222,25.283 191.222,38.737 215.996,38.737 215.996,1.01 116.801,1.01 116.801,25.283 126.09,25.283 126.09,121.561 
		116.833,121.561 116.833,146.035 162.62,146.035 162.62,121.561 153.663,121.561 	"/>
	<path fill="#00539B" d="M105.21,91.227V25.276h9.166V1.01H68.494v24.266h8.947v57.749c0,24.204-2.798,35.837-20.179,35.837
		c-17.382,0-20.178-11.633-20.178-35.837V25.276h8.877V1.01H0.01v24.266h9.101v65.951c0,14.403,0,26.204,6.793,36.806
		c7.592,12.003,21.377,19.633,41.357,19.633C92.625,147.666,105.21,129.234,105.21,91.227L105.21,91.227z"/>
</g>
</svg>
